<?xml version="1.0" encoding="utf-8"?>
<!-- Generator: Adobe Illustrator 24.0.1, SVG Export Plug-In . SVG Version: 6.00 Build 0)  -->
<svg version="1.1" id="Camada_1" xmlns="http://www.w3.org/2000/svg" xmlns:xlink="http://www.w3.org/1999/xlink" x="0px" y="0px"
	 viewBox="0 0 1366 768" style="enable-background:new 0 0 1366 768;" xml:space="preserve">	

<style type="text/css">
	.st0{fill:#FF720E;}
	.st1{font-family:'mohr_altblack';}
	.st2{font-size:307.0223px;}
	.st3{fill:#42210B;}
	.st4{fill:#FFB10E;}
</style>
<g>
	<text transform="matrix(1 0 0 1 148.1304 512.6992)" class="st0 st1 st2">TYPIN.</text>
	<g>
		<text transform="matrix(1 0 0 1 165.6303 530.1992)" class="st3 st1 st2">TYPIN.</text>
		<text transform="matrix(1 0 0 1 165.2803 529.8492)" class="st3 st1 st2">TYPIN.</text>
		<text transform="matrix(1 0 0 1 164.9303 529.4992)" class="st3 st1 st2">TYPIN.</text>
		<text transform="matrix(1 0 0 1 164.5803 529.1492)" class="st3 st1 st2">TYPIN.</text>
		<text transform="matrix(1 0 0 1 164.2303 528.7992)" class="st3 st1 st2">TYPIN.</text>
		<text transform="matrix(1 0 0 1 163.8803 528.4492)" class="st3 st1 st2">TYPIN.</text>
		<text transform="matrix(1 0 0 1 163.5303 528.0992)" class="st3 st1 st2">TYPIN.</text>
		<text transform="matrix(1 0 0 1 163.1803 527.7492)" class="st3 st1 st2">TYPIN.</text>
		<text transform="matrix(1 0 0 1 162.8303 527.3992)" class="st3 st1 st2">TYPIN.</text>
		<text transform="matrix(1 0 0 1 162.4803 527.0492)" class="st3 st1 st2">TYPIN.</text>
		<text transform="matrix(1 0 0 1 162.1303 526.6992)" class="st3 st1 st2">TYPIN.</text>
		<text transform="matrix(1 0 0 1 161.7803 526.3492)" class="st3 st1 st2">TYPIN.</text>
		<text transform="matrix(1 0 0 1 161.4303 525.9992)" class="st3 st1 st2">TYPIN.</text>
		<text transform="matrix(1 0 0 1 161.0803 525.6492)" class="st3 st1 st2">TYPIN.</text>
		<text transform="matrix(1 0 0 1 160.7303 525.2992)" class="st3 st1 st2">TYPIN.</text>
		<text transform="matrix(1 0 0 1 160.3803 524.9492)" class="st3 st1 st2">TYPIN.</text>
		<text transform="matrix(1 0 0 1 160.0303 524.5992)" class="st3 st1 st2">TYPIN.</text>
		<text transform="matrix(1 0 0 1 159.6803 524.2492)" class="st3 st1 st2">TYPIN.</text>
		<text transform="matrix(1 0 0 1 159.3303 523.8992)" class="st3 st1 st2">TYPIN.</text>
		<text transform="matrix(1 0 0 1 158.9803 523.5492)" class="st3 st1 st2">TYPIN.</text>
		<text transform="matrix(1 0 0 1 158.6303 523.1992)" class="st3 st1 st2">TYPIN.</text>
		<text transform="matrix(1 0 0 1 158.2803 522.8492)" class="st3 st1 st2">TYPIN.</text>
		<text transform="matrix(1 0 0 1 157.9303 522.4992)" class="st3 st1 st2">TYPIN.</text>
		<text transform="matrix(1 0 0 1 157.5803 522.1492)" class="st3 st1 st2">TYPIN.</text>
		<text transform="matrix(1 0 0 1 157.2303 521.7992)" class="st3 st1 st2">TYPIN.</text>
		<text transform="matrix(1 0 0 1 156.8803 521.4492)" class="st3 st1 st2">TYPIN.</text>
		<text transform="matrix(1 0 0 1 156.5303 521.0992)" class="st3 st1 st2">TYPIN.</text>
		<text transform="matrix(1 0 0 1 156.1803 520.7492)" class="st3 st1 st2">TYPIN.</text>
		<text transform="matrix(1 0 0 1 155.8303 520.3992)" class="st3 st1 st2">TYPIN.</text>
		<text transform="matrix(1 0 0 1 155.4803 520.0492)" class="st3 st1 st2">TYPIN.</text>
		<text transform="matrix(1 0 0 1 155.1303 519.6992)" class="st3 st1 st2">TYPIN.</text>
		<text transform="matrix(1 0 0 1 154.7803 519.3492)" class="st3 st1 st2">TYPIN.</text>
		<text transform="matrix(1 0 0 1 154.4303 518.9992)" class="st3 st1 st2">TYPIN.</text>
		<text transform="matrix(1 0 0 1 154.0804 518.6492)" class="st3 st1 st2">TYPIN.</text>
		<text transform="matrix(1 0 0 1 153.7303 518.2992)" class="st3 st1 st2">TYPIN.</text>
		<text transform="matrix(1 0 0 1 153.3803 517.9492)" class="st3 st1 st2">TYPIN.</text>
		<text transform="matrix(1 0 0 1 153.0303 517.5992)" class="st3 st1 st2">TYPIN.</text>
		<text transform="matrix(1 0 0 1 152.6804 517.2492)" class="st3 st1 st2">TYPIN.</text>
		<text transform="matrix(1 0 0 1 152.3304 516.8992)" class="st3 st1 st2">TYPIN.</text>
		<text transform="matrix(1 0 0 1 151.9803 516.5492)" class="st3 st1 st2">TYPIN.</text>
		<text transform="matrix(1 0 0 1 151.6304 516.1992)" class="st3 st1 st2">TYPIN.</text>
		<text transform="matrix(1 0 0 1 151.2804 515.8492)" class="st3 st1 st2">TYPIN.</text>
		<text transform="matrix(1 0 0 1 150.9304 515.4992)" class="st3 st1 st2">TYPIN.</text>
		<text transform="matrix(1 0 0 1 150.5804 515.1492)" class="st3 st1 st2">TYPIN.</text>
		<text transform="matrix(1 0 0 1 150.2304 514.7992)" class="st3 st1 st2">TYPIN.</text>
		<text transform="matrix(1 0 0 1 149.8804 514.4492)" class="st3 st1 st2">TYPIN.</text>
		<text transform="matrix(1 0 0 1 149.5304 514.0992)" class="st3 st1 st2">TYPIN.</text>
		<text transform="matrix(1 0 0 1 149.1804 513.7492)" class="st3 st1 st2">TYPIN.</text>
		<text transform="matrix(1 0 0 1 148.8304 513.3992)" class="st3 st1 st2">TYPIN.</text>
		<text transform="matrix(1 0 0 1 148.4804 513.0492)" class="st3 st1 st2">TYPIN.</text>
		<text transform="matrix(1 0 0 1 148.1304 512.6992)" class="st3 st1 st2">TYPIN.</text>
	</g>
	<text transform="matrix(1 0 0 1 148.1304 512.6992)" class="st4 st1 st2">TYPIN.</text>
</g>
</svg>
